<?xml version="1.0" encoding="UTF-8"?>
<svg id="Layer_1" data-name="Layer 1" xmlns="http://www.w3.org/2000/svg" viewBox="0 0 29.35 30.91">
  <defs>
    <style>
      .cls-1, .cls-2 {
        stroke: #000;
      }

      .cls-1, .cls-2, .cls-3 {
        stroke-miterlimit: 10;
        stroke-width: 2px;
      }

      .cls-2 {
        fill: none;
      }

      .cls-3 {
        stroke: #231f20;
      }
    </style>
  </defs>
  <path class="cls-1" d="M15.82,2.52c5.1,.52,8.57,4.87,8.57,10.11,0,0,.05,2.32,2.17,5.36s1.76,4.34,1.76,4.34c0,2.7-6.63,4.89-13.85,4.89S1.03,25.03,1.03,22.33c0,0-.33-1.4,1.35-4.14s1.81-5.56,1.81-5.56C4.18,7.44,7.61,3.24,12.64,2.65l3.19-.14Z"/>
  <path class="cls-2" d="M17.49,27.41c0,1.38-1.43,2.51-3.2,2.51s-3.2-1.12-3.2-2.51"/>
  <path class="cls-3" d="M12.16,2.76c.03-1,.97-1.79,2.11-1.76s2.04,.87,2.01,1.87-.95,1.2-2.09,1.17-2.06-.28-2.03-1.28Z"/>
</svg>