<svg xmlns="http://www.w3.org/2000/svg" width="33" height="33" viewBox="0 0 33 33">
  <g id="lang" transform="translate(-276 -4276)">
    <rect id="사각형_100" data-name="사각형 100" width="33" height="33" rx="16.5" transform="translate(276 4276)" fill="#fff"/>
    <g id="_Icon-_-Bold-_-Action-_-Online" data-name="*Icon-/-Bold-/-Action-/-Online" transform="translate(283.251 4283.251)">
      <path id="Icon-_-Bold-_-Action-_-Online" data-name="Icon-/-Bold-/-Action-/-Online" d="M11.251,2a9.249,9.249,0,0,1,.15,18.5h-.156A9.249,9.249,0,0,1,11.1,2ZM7.289,12.052a10.948,10.948,0,0,0,1.38,4.9,4.271,4.271,0,0,0,1.773,1.751l0-6.654Zm4.764,0,0,6.653c1.516-.679,2.961-3.2,3.159-6.652Zm-8.4,0a7.583,7.583,0,0,0,2.195,4.6,7.692,7.692,0,0,0,1.448,1.139,12.48,12.48,0,0,1-1.616-5.737Zm13.17,0a12.487,12.487,0,0,1-1.613,5.726,7.65,7.65,0,0,0,3.64-5.726ZM15.2,4.709a12.482,12.482,0,0,1,1.616,5.737h2.027a7.583,7.583,0,0,0-2.195-4.6,7.7,7.7,0,0,0-1.329-1.065Zm-3.149-.918,0,6.654h3.156a11.046,11.046,0,0,0-1.324-4.809l-.056-.1A4.271,4.271,0,0,0,12.055,3.791Zm-1.608,0c-1.516.678-2.961,3.2-3.159,6.653h3.157Zm-3.156.925-.063.039a7.651,7.651,0,0,0-3.577,5.688H5.677A12.572,12.572,0,0,1,7.231,4.816Z" transform="translate(-2 -2)" fill="#1d1d1d"/>
    </g>
  </g>
</svg>
