<svg id="logo" xmlns="http://www.w3.org/2000/svg" width="195.525" height="17.474" viewBox="0 0 195.525 17.474">
  <path id="logo-2" data-name="logo" d="M15.712,27.553c-4.513,0-5.359-2.575-5.164-5.5H14.19c0,1.617.073,2.975,2.076,2.975A1.712,1.712,0,0,0,18.1,23.1c0-3.043-7.338-3.232-7.338-8.268,0-2.647,1.3-4.754,5.745-4.754,3.548,0,5.31,1.546,5.072,5.084h-3.55c0-1.265-.218-2.554-1.688-2.554a1.673,1.673,0,0,0-1.884,1.8c0,3.209,7.338,2.927,7.338,8.245,0,4.379-3.306,4.895-6.086,4.895m7.238-.277,4.827-16.912h4.8l4.732,16.912H33.473l-.966-3.752H27.536l-.989,3.748h-3.6Zm7.025-13.655h-.047L28.26,20.928h3.475Zm8.853,13.655V10.36h5.865l2.728,11.5h.049l2.9-11.5h5.676V27.273H52.489V14.224H52.44L49.084,27.273H45.611L42.423,14.224h-.047V27.273H38.827Zm24.782.277c-4.519,0-5.359-2.575-5.164-5.5h3.645c0,1.617.073,2.975,2.074,2.975A1.712,1.712,0,0,0,66,23.1c0-3.043-7.336-3.232-7.336-8.268,0-2.647,1.3-4.754,5.745-4.754,3.548,0,5.307,1.546,5.072,5.084H65.923c0-1.265-.218-2.554-1.689-2.554a1.674,1.674,0,0,0-1.882,1.8c0,3.209,7.338,2.927,7.338,8.245,0,4.379-3.307,4.895-6.086,4.895M83.951,10.36V22.353c0,2.529-1.475,5.2-5.912,5.2-4.008,0-5.938-2.012-5.938-5.2V10.36h3.645V22.119c0,2.086.922,2.9,2.244,2.9,1.593,0,2.318-1.03,2.318-2.9V10.36h3.642Zm2.87,16.912V10.36h4.922l4.634,11.711h.05V10.36h3.4V27.273h-4.8L90.271,14.907h-.047V27.273Zm23.915-11.711c.024-1.568-.242-2.951-2.173-2.951-2.269,0-2.269,2.975-2.269,6.252,0,5.295.531,6.231,2.608,6.231a5.864,5.864,0,0,0,1.808-.328V21.018h-1.979v-2.6h5.625v8.571a34.474,34.474,0,0,1-4.924.561c-6.132,0-6.831-2.458-6.831-8.877,0-4.262.216-8.594,6.178-8.594,3.571,0,5.792,1.944,5.576,5.48h-3.616Zm11.965-5.2h6.082c4.78,0,5.672,3.093,5.672,8.363,0,2.6.41,8.549-5.819,8.549H122.7V10.36Zm3.644,14.308h1.762c2.221,0,2.656-1.613,2.656-5.853,0-3.115,0-5.856-2.536-5.856h-1.882Zm10.905-14.31h3.643V27.271h-3.645V10.36Zm11.316,17.194c-4.511,0-5.357-2.575-5.164-5.5h3.643c0,1.617.074,2.975,2.077,2.975a1.713,1.713,0,0,0,1.836-1.92c0-3.043-7.339-3.232-7.339-8.268,0-2.647,1.3-4.754,5.745-4.754,3.548,0,5.31,1.546,5.072,5.084h-3.548c0-1.265-.217-2.554-1.688-2.554a1.673,1.673,0,0,0-1.883,1.8c0,3.209,7.337,2.927,7.337,8.245,0,4.379-3.306,4.895-6.086,4.895m8.589-17.192h6.566c3.332,0,4.636,1.97,4.636,5.059,0,1.92-.578,4.967-4.851,4.967h-2.7v6.887h-3.645V10.36Zm3.645,7.426h2.029a2.121,2.121,0,0,0,1.832-2.273c0-1.383-.384-2.552-2.029-2.552H160.8v4.825Zm9.652,9.486V10.36H174.1v14.1h5.454v2.811h-9.1Zm9.241,0,4.827-16.912h4.8l4.732,16.912h-3.838l-.965-3.749h-4.972l-.989,3.748h-3.6Zm7.023-13.655h-.048l-1.66,7.306h3.467Zm10.812,7.8-4.565-11.058h3.984l2.608,7.145,2.773-7.145h3.719L201.172,21.42v5.853h-3.643V21.419Z" transform="translate(-10.522 -10.081)" fill="#fff" fill-rule="evenodd"/>
</svg>
