<svg xmlns="http://www.w3.org/2000/svg" xmlns:xlink="http://www.w3.org/1999/xlink" width="33" height="33" viewBox="0 0 33 33">
  <defs>
    <clipPath id="clip-path">
      <rect id="사각형_102" data-name="사각형 102" width="19.493" height="13.645" transform="translate(0 0)" fill="#1d1d1d"/>
    </clipPath>
  </defs>
  <g id="yt" transform="translate(-276 -4276)">
    <rect id="사각형_100" data-name="사각형 100" width="33" height="33" rx="16.5" transform="translate(276 4276)" fill="#fff"/>
    <g id="그룹_60" data-name="그룹 60" transform="translate(282.754 4285.678)">
      <g id="그룹_59" data-name="그룹 59" clip-path="url(#clip-path)">
        <path id="패스_66" data-name="패스 66" d="M19.492,4.278A4.277,4.277,0,0,0,15.215,0H4.277A4.277,4.277,0,0,0,0,4.278v5.09a4.277,4.277,0,0,0,4.277,4.277H15.215a4.277,4.277,0,0,0,4.277-4.277ZM13.06,7.2,8.155,9.631c-.192.1-.846-.036-.846-.254V4.4c0-.222.659-.361.852-.251L12.856,6.7c.2.112.4.4.2.505" fill="#1d1d1d"/>
      </g>
    </g>
  </g>
</svg>
