<?xml version="1.0" encoding="UTF-8"?>
<svg id="Layer_1" data-name="Layer 1" xmlns="http://www.w3.org/2000/svg" viewBox="0 0 394.79 458.13">
  <defs>
    <style>
      .cls-1 {
        fill: #fff;
      }
    </style>
  </defs>
  <path d="M49.68,456.05c23.96,6.08,49.23-1.45,65.41-19.49l101.32-121.94,59,82.93c6.93,9.74,20.55,12.24,30.43,5.59,4.33-2.92,7.41-7.28,8.67-12.29L392.88,80.16c8.65-34.27-12.83-69.24-47.98-78.11-15.55-3.92-31.96-2.16-46.13,4.96L18.36,161.52c-10.46,5.75-14.07,18.77-8.07,29.07,2.63,4.51,6.83,7.95,11.82,9.7l92.66,32.33L15.48,352.09c-23.36,26.76-19.89,67.24,7.75,90.42,7.66,6.42,16.71,11.06,26.44,13.54h0Zm173.16-197.63c-1.48-.37-2.98-.6-4.5-.67-6.87-.3-13.44,2.57-17.75,7.76l-119.06,143.25c-8.05,8.7-21.87,9.29-30.87,1.31s-9.76-21.51-1.71-30.21h0l119.28-143.52c7.57-9.1,6.09-22.57-3.31-30.08-1.97-1.57-4.19-2.8-6.58-3.63l-76.73-26.77L319.83,44.7c7.46-3.56,16.42-2.49,22.89,2.74,6.83,5.22,9.87,13.88,7.74,22.02l-66.9,265.19-48.05-67.57c-3.03-4.28-7.53-7.35-12.66-8.65h0Z"/>
  <path class="cls-1" d="M222.82,258.52c-1.48-.37-2.98-.6-4.5-.67-6.87-.3-13.44,2.57-17.75,7.76l-119.06,143.25c-8.05,8.7-21.87,9.29-30.87,1.31s-9.76-21.51-1.71-30.21h0l119.28-143.52c7.57-9.1,6.09-22.57-3.31-30.08-1.97-1.57-4.19-2.8-6.58-3.63l-76.73-26.77L319.8,44.8c7.46-3.56,16.42-2.49,22.89,2.74,6.83,5.22,9.87,13.88,7.74,22.02l-66.9,265.19-48.05-67.57c-3.03-4.28-7.53-7.35-12.66-8.65h0Z"/>
</svg>